<svg width="72" height="23" viewBox="0 0 72 23" fill="none" xmlns="http://www.w3.org/2000/svg">
<path d="M24.4126 10.9193C23.9044 10.1669 23.2659 9.50463 22.6098 8.93923C23.2568 7.72124 24.3807 5.55428 24.3492 5.26246C24.3053 4.85323 23.7491 3.62555 23.0164 2.8943C22.2843 2.16362 19.0332 -0.0147436 16.0305 7.52363e-05C13.0284 0.014894 12.6036 0.613916 12.6036 0.613916L10.9161 4.76318C8.22634 4.71758 6.65477 5.45511 6.03859 5.96977C5.29049 6.59501 5.34246 7.39352 5.41213 7.89736C5.45381 8.2 5.73421 8.59612 5.95178 8.86457C5.94836 8.86742 5.9455 8.87027 5.94208 8.87312C4.83364 9.89847 3.72063 11.8232 5.66911 14.7938C5.66911 14.7938 5.94436 12.6662 6.77012 11.8357C6.78782 11.9229 6.80553 12.0084 6.82323 12.0928C6.57653 12.5425 6.33154 13.2298 6.66676 13.9429C7.28922 15.268 6.70845 14.3464 7.02996 13.4459C7.04138 13.4128 7.0568 13.3769 7.07336 13.3398C7.07793 13.3644 7.08192 13.3872 7.08535 13.4065C7.18529 13.9708 7.65413 15.4652 7.75807 15.7924C7.7672 15.8209 7.7415 15.8488 7.71238 15.8419L5.69937 15.4076C5.62342 15.3974 5.54804 15.3826 5.4738 15.3632C5.02152 15.2475 2.0891 14.5778 1.43009 14.5094C0.703118 14.4342 0.150327 14.6376 0.0458216 15.0719C-0.0586834 15.5062 -0.0643941 16.1201 0.926976 16.4501C1.83726 16.7527 6.27786 17.6231 6.99969 17.7638C7.05566 17.7747 7.0922 17.8271 7.08535 17.8835C6.91974 19.2725 7.69239 21.0696 8.62837 21.3255C9.58719 21.5877 10.6145 23 11.9268 23C13.2392 23 17.1087 22.2596 18.6837 20.7789C20.2587 19.2981 19.9389 17.7946 19.9389 17.7946C21.3197 17.7262 21.8794 16.7693 22.21 16.0403C22.5412 15.3113 22.4025 14.7568 22.4025 14.7568H22.7423C24.2036 14.5658 25.9265 13.1592 24.4126 10.9193ZM13.1055 19.8459C12.4871 20.2585 12.133 20.4215 11.904 20.5019C11.7527 20.5549 10.5894 20.7663 9.91041 20.4278C9.23199 20.0892 8.87107 19.5598 8.49988 19.338C8.49988 19.338 9.57291 20.0123 10.4107 20.0761C11.2484 20.1394 12.8754 19.7786 13.3351 19.6133C13.8245 19.4372 14.5246 19.1545 14.6571 19.1796C14.6571 19.1796 13.7234 19.4338 13.105 19.8464L13.1055 19.8459Z" fill="black"/>
<path d="M43 3.08C43.3067 3.08 43.6067 3.17333 43.9 3.36C44.1933 3.53333 44.4 3.84 44.52 4.28L47.12 13.68L49.66 3.96C49.7533 3.6 49.9333 3.35333 50.2 3.22C50.48 3.08667 50.7867 3.05333 51.12 3.12C51.4667 3.18667 51.7133 3.35333 51.86 3.62C52.02 3.87333 52.0467 4.18 51.94 4.54L48.64 16.34C48.52 16.78 48.3133 17.0933 48.02 17.28C47.7267 17.4533 47.4267 17.54 47.12 17.54C46.8133 17.54 46.5133 17.4533 46.22 17.28C45.9267 17.0933 45.72 16.7667 45.6 16.3L42.98 6.52L40.24 16.34C40.12 16.78 39.9067 17.0933 39.6 17.28C39.3067 17.4533 39.0067 17.54 38.7 17.54C38.38 17.54 38.0733 17.4533 37.78 17.28C37.4867 17.0933 37.28 16.7733 37.16 16.32L33.94 4.66C33.8333 4.27333 33.86 3.94667 34.02 3.68C34.1933 3.41333 34.46 3.23333 34.82 3.14C35.1533 3.06 35.4667 3.06667 35.76 3.16C36.0667 3.25333 36.2733 3.50667 36.38 3.92L38.84 13.7L41.46 4.28C41.58 3.84 41.7867 3.53333 42.08 3.36C42.3733 3.17333 42.68 3.08 43 3.08ZM55.7438 3.08C56.0904 3.08 56.3904 3.16667 56.6438 3.34C56.8971 3.51333 57.0238 3.79333 57.0238 4.18V16.44C57.0238 16.8267 56.8971 17.1067 56.6438 17.28C56.3904 17.4533 56.0904 17.54 55.7438 17.54C55.3971 17.54 55.0971 17.4533 54.8438 17.28C54.5904 17.1067 54.4638 16.8267 54.4638 16.44V4.18C54.4638 3.79333 54.5904 3.51333 54.8438 3.34C55.0971 3.16667 55.3971 3.08 55.7438 3.08ZM65.7045 3.2C66.5712 3.2 67.3112 3.30667 67.9245 3.52C68.5512 3.72 69.0645 4.00667 69.4645 4.38C69.8645 4.74 70.1579 5.17333 70.3445 5.68C70.5445 6.18667 70.6445 6.73333 70.6445 7.32V7.6C70.6445 8.18667 70.5445 8.74667 70.3445 9.28C70.1445 9.8 69.8379 10.26 69.4245 10.66C69.0112 11.0467 68.4979 11.36 67.8845 11.6C67.2712 11.8267 66.5445 11.94 65.7045 11.94H62.8245V16.44C62.8245 16.8267 62.6979 17.1067 62.4445 17.28C62.1912 17.4533 61.8912 17.54 61.5445 17.54C61.1979 17.54 60.8979 17.4533 60.6445 17.28C60.3912 17.1067 60.2645 16.8267 60.2645 16.44V4.86C60.2645 4.23333 60.3845 3.8 60.6245 3.56C60.8779 3.32 61.3245 3.2 61.9645 3.2H65.7045ZM62.8245 9.78H65.3645C66.2045 9.78 66.8645 9.62 67.3445 9.3C67.8245 8.98 68.0645 8.4 68.0645 7.56V7.34C68.0645 6.94 68.0045 6.61333 67.8845 6.36C67.7645 6.10667 67.5912 5.90667 67.3645 5.76C67.1512 5.6 66.8912 5.49333 66.5845 5.44C66.2779 5.37333 65.9445 5.34 65.5845 5.34H62.8245V9.78Z" fill="black"/>
</svg>
