<svg width="400" height="368" viewBox="0 0 400 368" fill="none" xmlns="http://www.w3.org/2000/svg">
<path d="M390.602 174.708C382.47 162.671 372.255 152.074 361.756 143.028C372.109 123.54 390.09 88.8684 389.588 84.1994C388.884 77.6517 379.985 58.0088 368.262 46.3088C356.548 34.6179 304.531 -0.235897 256.488 0.00120378C208.455 0.238305 201.657 9.82265 201.657 9.82265L174.657 76.2109C131.621 75.4814 106.476 87.2817 96.6174 95.5164C84.6478 105.52 85.4793 118.296 86.594 126.358C87.261 131.2 91.7473 137.538 95.2285 141.833C95.1737 141.879 95.128 141.924 95.0732 141.97C77.3382 158.375 59.5301 189.171 90.7057 236.701C90.7057 236.701 95.1098 202.659 108.322 189.372C108.605 190.767 108.888 192.135 109.172 193.485C105.224 200.68 101.305 211.678 106.668 223.086C116.628 244.288 107.335 229.542 112.479 215.134C112.662 214.605 112.909 214.03 113.174 213.438C113.247 213.83 113.311 214.194 113.366 214.505C114.965 223.533 122.466 247.443 124.129 252.678C124.275 253.134 123.864 253.581 123.398 253.471L91.19 246.522C89.9747 246.358 88.7687 246.121 87.5808 245.811C80.3443 243.96 33.4255 233.245 22.8814 232.15C11.2499 230.947 2.40523 234.202 0.733146 241.151C-0.938935 248.1 -1.03031 257.921 14.8316 263.201C29.3961 268.044 100.446 281.969 111.995 284.221C112.89 284.395 113.475 285.234 113.366 286.136C110.716 308.36 123.078 337.113 138.054 341.208C153.395 345.402 169.833 368 190.83 368C211.826 368 273.739 356.154 298.939 332.462C324.139 308.77 319.022 284.714 319.022 284.714C341.116 283.619 350.07 268.308 355.36 256.645C360.66 244.981 358.44 236.108 358.44 236.108H363.876C387.258 233.053 414.824 210.547 390.602 174.708ZM209.688 317.534C199.793 324.136 194.128 326.744 190.464 328.03C188.043 328.878 169.431 332.262 158.567 326.845C147.712 321.428 141.937 312.956 135.998 309.409C135.998 309.409 153.167 320.197 166.571 321.218C179.975 322.23 206.006 316.458 213.362 313.813C221.192 310.995 232.394 306.472 234.514 306.874C234.514 306.874 219.575 310.941 209.679 317.543L209.688 317.534Z" fill="black"/>
</svg>
