<svg width="44" height="23" viewBox="0 0 44 23" fill="none" xmlns="http://www.w3.org/2000/svg">
<path d="M22.1644 6.00799L20.849 12.6288C20.469 14.5434 19.7017 15.9538 18.5471 16.86C17.407 17.7662 15.8943 18.2192 14.0089 18.2192C13.2343 18.2192 12.5182 18.095 11.8605 17.8465C11.2028 17.5981 10.6547 17.2108 10.2162 16.6846C9.0616 17.7077 7.65852 18.2192 6.00697 18.2192C4.9108 18.2192 3.95349 18.0219 3.13502 17.6273C2.33117 17.2327 1.71001 16.6773 1.27155 15.9611C0.847698 15.245 0.635774 14.4192 0.635774 13.4838C0.635774 13.0746 0.67962 12.6434 0.767313 12.1903L1.97309 6.00799H6.8839L5.67812 12.0369C5.60504 12.4315 5.5685 12.7457 5.5685 12.9796C5.5685 13.8419 5.95581 14.2731 6.73043 14.2731C7.18351 14.2731 7.53428 14.1196 7.78275 13.8127C8.03121 13.5057 8.22852 13.0015 8.37468 12.3L9.60238 6.00799H14.5132L13.3293 12.0588C13.2562 12.468 13.2197 12.7823 13.2197 13.0015C13.2197 13.4546 13.3147 13.7834 13.5047 13.988C13.6947 14.178 13.9797 14.2731 14.3597 14.2731C14.8128 14.2731 15.1636 14.1196 15.412 13.8127C15.6751 13.5057 15.8797 13.0015 16.0259 12.3L17.2536 6.00799H22.1644ZM24.139 6.00799H29.0717L26.6821 18H21.7494L24.139 6.00799ZM27.1425 5.04337C26.2948 5.04337 25.6152 4.82414 25.1036 4.38567C24.5921 3.93259 24.3363 3.3699 24.3363 2.69758C24.3363 1.92296 24.6286 1.27988 25.2133 0.768339C25.7979 0.256796 26.5579 0.00102481 27.4933 0.00102481C28.341 0.00102481 29.0206 0.212949 29.5321 0.636798C30.0437 1.04603 30.2995 1.5868 30.2995 2.25912C30.2995 3.0922 30.0071 3.76451 29.4225 4.27606C28.8525 4.7876 28.0925 5.04337 27.1425 5.04337ZM38.9634 5.78876C39.7819 5.78876 40.5711 6.00799 41.3311 6.44646C42.0911 6.88492 42.705 7.528 43.1727 8.3757C43.655 9.20878 43.8961 10.1953 43.8961 11.3353C43.8961 12.6215 43.6038 13.7907 43.0192 14.8431C42.4492 15.8954 41.6746 16.7211 40.6953 17.3204C39.7161 17.9196 38.6565 18.2192 37.5165 18.2192C35.9088 18.2192 34.7688 17.7223 34.0965 16.7285L32.9784 22.2531H28.0237L31.2684 6.00799H35.938L35.7188 7.10415C36.6249 6.22722 37.7065 5.78876 38.9634 5.78876ZM36.7053 14.3169C37.3484 14.3169 37.8672 14.0684 38.2619 13.5715C38.6711 13.0746 38.8757 12.4096 38.8757 11.5765C38.8757 11.0065 38.7149 10.5534 38.3934 10.2173C38.0865 9.86648 37.6553 9.69109 37.0999 9.69109C36.4569 9.69109 35.9307 9.93956 35.5215 10.4365C35.1268 10.9334 34.9295 11.5984 34.9295 12.4315C34.9295 13.0015 35.083 13.4619 35.3899 13.8127C35.7115 14.1488 36.1499 14.3169 36.7053 14.3169Z" fill="#C4B5FD"/>
</svg>
